C:/Users/Sebas/Desktop/Saberes/ffmpeg-2025-05-01-git-707c04fe06-full_build/bin/ffmpeg.exe -hide_banner -y -y -r 24 -start_number 0 -start_number_range 1 -i C:/Users/Sebas/Desktop/Saberes/objetos/fotograma%04d.png -crf 23 -preset medium -profile:v baseline -pix_fmt yuv420p C:/Users/Sebas/Desktop/Saberes/objetos/cristal de salto.mkv
=====================================================
Input #0, image2, from 'C:/Users/Sebas/Desktop/Saberes/objetos/fotograma%04d.png':
  Duration: 00:00:00.36, start: 0.000000, bitrate: N/A
  Stream #0:0: Video: png, rgba64be(pc, gbr/unknown/unknown), 1920x1080 [SAR 11811:11811 DAR 16:9], 25 fps, 25 tbr, 25 tbn
Stream mapping:
  Stream #0:0 -> #0:0 (png (native) -> h264 (libx264))
Press [q] to stop, [?] for help
[libx264 @ 0000026c4fc26700] using SAR=1/1
[libx264 @ 0000026c4fc26700] using cpu capabilities: MMX2 SSE2Fast SSSE3 SSE4.2 AVX FMA3 BMI2 AVX2
[libx264 @ 0000026c4fc26700] profile Constrained Baseline, level 4.0, 4:2:0, 8-bit
[libx264 @ 0000026c4fc26700] 264 - core 165 r3215 32c3b80 - H.264/MPEG-4 AVC codec - Copyleft 2003-2025 - http://www.videolan.org/x264.html - options: cabac=0 ref=3 deblock=1:0:0 analyse=0x1:0x111 me=hex subme=7 psy=1 psy_rd=1.00:0.00 mixed_ref=1 me_range=16 chroma_me=1 trellis=1 8x8dct=0 cqm=0 deadzone=21,11 fast_pskip=1 chroma_qp_offset=-2 threads=6 lookahead_threads=1 sliced_threads=0 nr=0 decimate=1 interlaced=0 bluray_compat=0 constrained_intra=0 bframes=0 weightp=0 keyint=250 keyint_min=24 scenecut=40 intra_refresh=0 rc_lookahead=40 rc=crf mbtree=1 crf=23.0 qcomp=0.60 qpmin=0 qpmax=69 qpstep=4 ip_ratio=1.40 aq=1:1.00
Output #0, matroska, to 'C:/Users/Sebas/Desktop/Saberes/objetos/cristal de salto.mkv':
  Metadata:
    encoder         : Lavf62.0.102
  Stream #0:0: Video: h264 (H264 / 0x34363248), yuv420p(tv, progressive), 1920x1080 [SAR 1:1 DAR 16:9], q=2-31, 24 fps, 1k tbn
    Metadata:
      encoder         : Lavc62.1.102 libx264
    Side data:
      cpb: bitrate max/min/avg: 0/0/0 buffer size: 0 vbv_delay: N/A
[out#0/matroska @ 0000026c4e52eec0] video:48KiB audio:0KiB subtitle:0KiB other streams:0KiB global headers:0KiB muxing overhead: 1.411097%
frame=    9 fps=0.0 q=-1.0 Lsize=      48KiB time=00:00:00.37 bitrate=1059.4kbits/s speed=1.63x    
[libx264 @ 0000026c4fc26700] frame I:1     Avg QP:14.24  size: 18499
[libx264 @ 0000026c4fc26700] frame P:8     Avg QP:22.72  size:  3730
[libx264 @ 0000026c4fc26700] mb I  I16..4: 95.2%  0.0%  4.8%
[libx264 @ 0000026c4fc26700] mb P  I16..4:  1.4%  0.0%  0.2%  P16..4:  3.0%  1.1%  0.5%  0.0%  0.0%    skip:93.8%
[libx264 @ 0000026c4fc26700] coded y,uvDC,uvAC intra: 2.7% 7.0% 5.7% inter: 0.6% 1.7% 0.7%
[libx264 @ 0000026c4fc26700] i16 v,h,dc,p: 97%  1%  2%  0%
[libx264 @ 0000026c4fc26700] i4 v,h,dc,ddl,ddr,vr,hd,vl,hu: 19% 13% 35% 12%  3% 10%  1%  6%  1%
[libx264 @ 0000026c4fc26700] i8c dc,h,v,p: 94%  2%  3%  1%
[libx264 @ 0000026c4fc26700] ref P L0: 66.2% 20.2% 13.5%
[libx264 @ 0000026c4fc26700] kb/s:1031.27
